{
    "accessors" : [
        {
            "bufferView" : 0, 
            "componentType" : 5121, 
            "count" : 1440, 
            "max" : [
                241
            ], 
            "min" : [
                0
            ], 
            "type" : "SCALAR"
        }, 
        {
            "bufferView" : 1, 
            "componentType" : 5126, 
            "count" : 242, 
            "max" : [
                0.9379709959030151, 
                0.9502179026603699, 
                0.9508034586906433
            ], 
            "min" : [
                -0.9379709959030151, 
                -0.9502179026603699, 
                -0.9508035182952881
            ], 
            "type" : "VEC3"
        }, 
        {
            "bufferView" : 2, 
            "componentType" : 5126, 
            "count" : 242, 
            "max" : [
                0.99951171875, 
                1.0, 
                1.0
            ], 
            "min" : [
                -0.99951171875, 
                -1.0, 
                -1.0
            ], 
            "type" : "VEC3"
        }
    ], 
    "asset" : {
        "generator" : "Khronos Blender glTF 2.0 exporter", 
        "version" : "2.0"
    }, 
    "bufferViews" : [
        {
            "buffer" : 0, 
            "byteLength" : 1440, 
            "byteOffset" : 0, 
            "target" : 34963
        }, 
        {
            "buffer" : 0, 
            "byteLength" : 2904, 
            "byteOffset" : 1440, 
            "target" : 34962
        }, 
        {
            "buffer" : 0, 
            "byteLength" : 2904, 
            "byteOffset" : 4344, 
            "target" : 34962
        }
    ], 
    "buffers" : [
        {
            "byteLength" : 7248, 
            "uri" : "sphere.bin"
        }
    ], 
    "materials" : [
        {
            "name" : "Material", 
            "pbrMetallicRoughness" : {
                "baseColorFactor" : [
                    0.6400024509430295, 
                    0.0017622037121981932, 
                    0.0, 
                    1.0
                ], 
                "metallicFactor" : 0.0
            }
        }
    ], 
    "meshes" : [
        {
            "name" : "Icosphere", 
            "primitives" : [
                {
                    "attributes" : {
                        "NORMAL" : 2, 
                        "POSITION" : 1
                    }, 
                    "indices" : 0, 
                    "material" : 0
                }
            ]
        }
    ], 
    "nodes" : [
        {
            "mesh" : 0, 
            "name" : "Icosphere", 
            "scale" : [
                0.531761884689331, 
                0.531761884689331, 
                0.531761884689331
            ]
        }
    ], 
    "scene" : 0, 
    "scenes" : [
        {
            "name" : "Scene", 
            "nodes" : [
                0
            ]
        }
    ]
}
