{
    "accessors" : [
        {
            "bufferView" : 0, 
            "componentType" : 5123, 
            "count" : 1440, 
            "max" : [
                959
            ], 
            "min" : [
                0
            ], 
            "type" : "SCALAR"
        }, 
        {
            "bufferView" : 1, 
            "componentType" : 5126, 
            "count" : 960, 
            "max" : [
                0.9379709959030151, 
                0.9502179026603699, 
                0.9508034586906433
            ], 
            "min" : [
                -0.9379709959030151, 
                -0.9502179026603699, 
                -0.9508035182952881
            ], 
            "type" : "VEC3"
        }, 
        {
            "bufferView" : 2, 
            "componentType" : 5126, 
            "count" : 960, 
            "max" : [
                0.9904447793960571, 
                0.984935462474823, 
                0.9803946018218994
            ], 
            "min" : [
                -0.9904447793960571, 
                -0.984935462474823, 
                -0.9803946018218994
            ], 
            "type" : "VEC3"
        }
    ], 
    "asset" : {
        "generator" : "Khronos Blender glTF 2.0 exporter", 
        "version" : "2.0"
    }, 
    "bufferViews" : [
        {
            "buffer" : 0, 
            "byteLength" : 2880, 
            "byteOffset" : 0, 
            "target" : 34963
        }, 
        {
            "buffer" : 0, 
            "byteLength" : 11520, 
            "byteOffset" : 2880, 
            "target" : 34962
        }, 
        {
            "buffer" : 0, 
            "byteLength" : 11520, 
            "byteOffset" : 14400, 
            "target" : 34962
        }
    ], 
    "buffers" : [
        {
            "byteLength" : 25920, 
            "uri" : "sphereFlat.bin"
        }
    ], 
    "cameras" : [
        {
            "name" : "Camera", 
            "perspective" : {
                "aspectRatio" : 1.7777777777777777, 
                "yfov" : 0.5483348957076358, 
                "zfar" : 10000.0, 
                "znear" : 0.05000000074505806
            }, 
            "type" : "perspective"
        }
    ], 
    "materials" : [
        {
            "name" : "Material", 
            "pbrMetallicRoughness" : {
                "baseColorFactor" : [
                    0.6400000190734865, 
                    0.6400000190734865, 
                    0.6400000190734865, 
                    1.0
                ], 
                "metallicFactor" : 0.0
            }
        }
    ], 
    "meshes" : [
        {
            "name" : "Icosphere", 
            "primitives" : [
                {
                    "attributes" : {
                        "NORMAL" : 2, 
                        "POSITION" : 1
                    }, 
                    "indices" : 0, 
                    "material" : 0
                }
            ]
        }
    ], 
    "nodes" : [
        {
            "camera" : 0, 
            "name" : "Correction_-Camera", 
            "rotation" : [
                -0.7071067690849304, 
                -0.0, 
                0.0, 
                0.7071067690849304
            ]
        }, 
        {
            "children" : [
                0
            ], 
            "name" : "-Camera", 
            "rotation" : [
                0.5341389179229736, 
                0.2713526487350464, 
                -0.19233660399913788, 
                0.7772193551063538
            ], 
            "translation" : [
                3.570233106613159, 
                1.9948248863220215, 
                4.522062301635742
            ]
        }, 
        {
            "mesh" : 0, 
            "name" : "Icosphere"
        }
    ], 
    "scene" : 0, 
    "scenes" : [
        {
            "name" : "Scene", 
            "nodes" : [
                2, 
                1
            ]
        }
    ]
}
