{
    "accessors" : [
        {
            "bufferView" : 0, 
            "componentType" : 5123, 
            "count" : 3732, 
            "max" : [
                1431
            ], 
            "min" : [
                0
            ], 
            "type" : "SCALAR"
        }, 
        {
            "bufferView" : 1, 
            "componentType" : 5126, 
            "count" : 1432, 
            "max" : [
                1.5939218997955322, 
                0.5740000605583191, 
                -0.00613960437476635
            ], 
            "min" : [
                -1.6350784301757812, 
                -0.5740000605583191, 
                -0.6971396207809448
            ], 
            "type" : "VEC3"
        }, 
        {
            "bufferView" : 2, 
            "componentType" : 5126, 
            "count" : 1432, 
            "max" : [
                0.999969482421875, 
                1.0, 
                0.999969482421875
            ], 
            "min" : [
                -0.999969482421875, 
                -1.0, 
                -0.999969482421875
            ], 
            "type" : "VEC3"
        }, 
        {
            "bufferView" : 3, 
            "componentType" : 5123, 
            "count" : 7980, 
            "max" : [
                3076
            ], 
            "min" : [
                0
            ], 
            "type" : "SCALAR"
        }, 
        {
            "bufferView" : 4, 
            "componentType" : 5126, 
            "count" : 3077, 
            "max" : [
                1.07033371925354, 
                0.028253400698304176, 
                -0.8089173436164856
            ], 
            "min" : [
                -1.195744276046753, 
                -0.028253858909010887, 
                -1.115527868270874
            ], 
            "type" : "VEC3"
        }, 
        {
            "bufferView" : 5, 
            "componentType" : 5126, 
            "count" : 3077, 
            "max" : [
                0.999969482421875, 
                1.0, 
                0.999969482421875
            ], 
            "min" : [
                -0.999969482421875, 
                -1.0, 
                -0.999969482421875
            ], 
            "type" : "VEC3"
        }
    ], 
    "asset" : {
        "generator" : "Khronos Blender glTF 2.0 exporter", 
        "version" : "2.0"
    }, 
    "bufferViews" : [
        {
            "buffer" : 0, 
            "byteLength" : 7464, 
            "byteOffset" : 0, 
            "target" : 34963
        }, 
        {
            "buffer" : 0, 
            "byteLength" : 17184, 
            "byteOffset" : 7464, 
            "target" : 34962
        }, 
        {
            "buffer" : 0, 
            "byteLength" : 17184, 
            "byteOffset" : 24648, 
            "target" : 34962
        }, 
        {
            "buffer" : 0, 
            "byteLength" : 15960, 
            "byteOffset" : 41832, 
            "target" : 34963
        }, 
        {
            "buffer" : 0, 
            "byteLength" : 36924, 
            "byteOffset" : 57792, 
            "target" : 34962
        }, 
        {
            "buffer" : 0, 
            "byteLength" : 36924, 
            "byteOffset" : 94716, 
            "target" : 34962
        }
    ], 
    "buffers" : [
        {
            "byteLength" : 131640, 
            "uri" : "text.bin"
        }
    ], 
    "materials" : [
        {
            "name" : "Material", 
            "pbrMetallicRoughness" : {
                "baseColorFactor" : [
                    0.640000066757203, 
                    0.0, 
                    0.002328541350789984, 
                    1.0
                ], 
                "metallicFactor" : 0.0
            }
        }, 
        {
            "name" : "Material.001", 
            "pbrMetallicRoughness" : {
                "baseColorFactor" : [
                    0.800000011920929, 
                    0.800000011920929, 
                    0.800000011920929, 
                    1.0
                ], 
                "metallicFactor" : 0.0
            }
        }
    ], 
    "meshes" : [
        {
            "name" : "Mesh", 
            "primitives" : [
                {
                    "attributes" : {
                        "NORMAL" : 2, 
                        "POSITION" : 1
                    }, 
                    "indices" : 0, 
                    "material" : 1
                }, 
                {
                    "attributes" : {
                        "NORMAL" : 5, 
                        "POSITION" : 4
                    }, 
                    "indices" : 3, 
                    "material" : 0
                }
            ]
        }
    ], 
    "nodes" : [
        {
            "mesh" : 0, 
            "name" : "Text.001", 
            "rotation" : [
                0.7071068286895752, 
                0.0, 
                -0.0, 
                0.7071068286895752
            ], 
            "scale" : [
                2.253673553466797, 
                0.9202357530593872, 
                2.253673553466797
            ]
        }
    ], 
    "scene" : 0, 
    "scenes" : [
        {
            "name" : "Scene", 
            "nodes" : [
                0
            ]
        }
    ]
}
