{
    "accessors" : [
        {
            "bufferView" : 0, 
            "componentType" : 5123, 
            "count" : 3732, 
            "max" : [
                1446
            ], 
            "min" : [
                0
            ], 
            "type" : "SCALAR"
        }, 
        {
            "bufferView" : 1, 
            "componentType" : 5126, 
            "count" : 1447, 
            "max" : [
                3.2290003299713135, 
                0.5740000605583191, 
                0.009000000543892384
            ], 
            "min" : [
                0.0, 
                -0.5740000605583191, 
                -0.6820000410079956
            ], 
            "type" : "VEC3"
        }, 
        {
            "bufferView" : 2, 
            "componentType" : 5126, 
            "count" : 1447, 
            "max" : [
                0.999969482421875, 
                1.0, 
                0.999969482421875
            ], 
            "min" : [
                -0.999969482421875, 
                -1.0, 
                -0.999969482421875
            ], 
            "type" : "VEC3"
        }, 
        {
            "bufferView" : 3, 
            "componentType" : 5123, 
            "count" : 7980, 
            "max" : [
                3138
            ], 
            "min" : [
                0
            ], 
            "type" : "SCALAR"
        }, 
        {
            "bufferView" : 4, 
            "componentType" : 5126, 
            "count" : 3139, 
            "max" : [
                5.107000350952148, 
                0.026000000536441803, 
                0.009000000543892384
            ], 
            "min" : [
                0.0, 
                -0.026000000536441803, 
                -0.6820000410079956
            ], 
            "type" : "VEC3"
        }, 
        {
            "bufferView" : 5, 
            "componentType" : 5126, 
            "count" : 3139, 
            "max" : [
                0.999969482421875, 
                1.0, 
                0.999969482421875
            ], 
            "min" : [
                -0.999969482421875, 
                -1.0, 
                -0.999969482421875
            ], 
            "type" : "VEC3"
        }
    ], 
    "asset" : {
        "generator" : "Khronos Blender glTF 2.0 exporter", 
        "version" : "2.0"
    }, 
    "bufferViews" : [
        {
            "buffer" : 0, 
            "byteLength" : 7464, 
            "byteOffset" : 0, 
            "target" : 34963
        }, 
        {
            "buffer" : 0, 
            "byteLength" : 17364, 
            "byteOffset" : 7464, 
            "target" : 34962
        }, 
        {
            "buffer" : 0, 
            "byteLength" : 17364, 
            "byteOffset" : 24828, 
            "target" : 34962
        }, 
        {
            "buffer" : 0, 
            "byteLength" : 15960, 
            "byteOffset" : 42192, 
            "target" : 34963
        }, 
        {
            "buffer" : 0, 
            "byteLength" : 37668, 
            "byteOffset" : 58152, 
            "target" : 34962
        }, 
        {
            "buffer" : 0, 
            "byteLength" : 37668, 
            "byteOffset" : 95820, 
            "target" : 34962
        }
    ], 
    "buffers" : [
        {
            "byteLength" : 133488, 
            "uri" : "WebVR.bin"
        }
    ], 
    "materials" : [
        {
            "name" : "Material", 
            "pbrMetallicRoughness" : {
                "baseColorFactor" : [
                    0.640000066757203, 
                    0.0, 
                    0.002328541350789984, 
                    1.0
                ], 
                "metallicFactor" : 0.0
            }
        }, 
        {
            "name" : "Material.001", 
            "pbrMetallicRoughness" : {
                "baseColorFactor" : [
                    0.800000011920929, 
                    0.800000011920929, 
                    0.800000011920929, 
                    1.0
                ], 
                "metallicFactor" : 0.0
            }
        }
    ], 
    "meshes" : [
        {
            "name" : "Mesh", 
            "primitives" : [
                {
                    "attributes" : {
                        "NORMAL" : 2, 
                        "POSITION" : 1
                    }, 
                    "indices" : 0, 
                    "material" : 1
                }
            ]
        }, 
        {
            "name" : "Mesh.001", 
            "primitives" : [
                {
                    "attributes" : {
                        "NORMAL" : 5, 
                        "POSITION" : 4
                    }, 
                    "indices" : 3, 
                    "material" : 0
                }
            ]
        }
    ], 
    "nodes" : [
        {
            "mesh" : 1, 
            "name" : "Text", 
            "rotation" : [
                0.7071068286895752, 
                0.0, 
                -0.0, 
                0.7071068286895752
            ], 
            "translation" : [
                -2.4975645542144775, 
                1.890386700630188, 
                -2.1124412796780234e-07
            ]
        }, 
        {
            "mesh" : 0, 
            "name" : "Text.001", 
            "rotation" : [
                0.7071068286895752, 
                0.0, 
                -0.0, 
                0.7071068286895752
            ], 
            "scale" : [
                2.253673553466797, 
                0.9202357530593872, 
                2.253673553466797
            ], 
            "translation" : [
                -3.487680196762085, 
                0.09247070550918579, 
                -8.147110008849268e-08
            ]
        }
    ], 
    "scene" : 0, 
    "scenes" : [
        {
            "name" : "Scene", 
            "nodes" : [
                1, 
                0
            ]
        }
    ]
}
